<svg xmlns="http://www.w3.org/2000/svg" viewBox="0 0 1200 675">
  <defs>
    <pattern id="hd-dots" width="28" height="28" patternUnits="userSpaceOnUse">
      <circle cx="1" cy="1" r="0.9" fill="rgba(255,255,255,0.055)"/>
    </pattern>
    <radialGradient id="hd-g1" cx="28%" cy="55%" r="48%">
      <stop offset="0%" stop-color="#10b981" stop-opacity="0.18"/>
      <stop offset="100%" stop-color="#10b981" stop-opacity="0"/>
    </radialGradient>
    <radialGradient id="hd-g2" cx="72%" cy="50%" r="40%">
      <stop offset="0%" stop-color="#ef4444" stop-opacity="0.12"/>
      <stop offset="100%" stop-color="#ef4444" stop-opacity="0"/>
    </radialGradient>
  </defs>

  <!-- Background -->
  <rect width="1200" height="675" fill="#060c17"/>
  <rect width="1200" height="675" fill="url(#hd-dots)"/>
  <rect width="1200" height="675" fill="url(#hd-g1)"/>
  <rect width="1200" height="675" fill="url(#hd-g2)"/>

  <!-- Top HUD -->
  <rect width="1200" height="46" fill="rgba(0,0,0,0.72)"/>
  <circle cx="22" cy="23" r="5" fill="#ef4444" opacity="0.9"/>
  <text x="35" y="28" font-family="'Courier New',monospace" font-size="12" fill="#ef4444" letter-spacing="2">LIVE</text>
  <text x="600" y="28" text-anchor="middle" font-family="'Courier New',monospace" font-size="12" fill="rgba(255,255,255,0.42)" letter-spacing="2">YOLOv8n  ·  PPE HELMET COMPLIANCE DETECTION  ·  CONF ≥ 0.30</text>
  <text x="1180" y="28" text-anchor="end" font-family="'Courier New',monospace" font-size="11" fill="rgba(255,255,255,0.3)" letter-spacing="1">24 FPS</text>

  <!-- ─── FIGURE 1 : helmet detected (green) ─── -->
  <!-- Helmet cap -->
  <path d="M 290 228 Q 342 192 394 228 L 399 254 Q 342 272 285 254 Z"
        fill="rgba(16,185,129,0.22)" stroke="rgba(16,185,129,0.5)" stroke-width="1.5"/>
  <!-- Head -->
  <ellipse cx="342" cy="286" rx="40" ry="46" fill="rgba(200,170,130,0.13)"/>
  <!-- Body -->
  <path d="M 274 388 Q 342 355 410 388 L 424 524 L 260 524 Z" fill="rgba(90,110,155,0.13)"/>
  <!-- Bounding box -->
  <rect x="258" y="194" width="168" height="340" fill="none" stroke="#10b981" stroke-width="2.5" opacity="0.92"/>
  <!-- Corner brackets -->
  <path d="M258 220 L258 194 L284 194" stroke="#10b981" stroke-width="3.5" fill="none" stroke-linecap="round"/>
  <path d="M400 194 L426 194 L426 220" stroke="#10b981" stroke-width="3.5" fill="none" stroke-linecap="round"/>
  <path d="M258 508 L258 534 L284 534" stroke="#10b981" stroke-width="3.5" fill="none" stroke-linecap="round"/>
  <path d="M426 508 L426 534 L400 534" stroke="#10b981" stroke-width="3.5" fill="none" stroke-linecap="round"/>
  <!-- Label -->
  <rect x="258" y="167" width="128" height="27" fill="#10b981" rx="3"/>
  <text x="322" y="185" text-anchor="middle" font-family="'Courier New',monospace" font-size="13" fill="white" font-weight="bold">helmet  0.94</text>

  <!-- ─── FIGURE 2 : head / no helmet (red) ─── -->
  <!-- Head -->
  <ellipse cx="830" cy="272" rx="44" ry="50" fill="rgba(200,170,130,0.11)"/>
  <!-- Body -->
  <path d="M 758 385 Q 830 350 902 385 L 918 524 L 742 524 Z" fill="rgba(90,110,155,0.11)"/>
  <!-- Bounding box -->
  <rect x="770" y="204" width="120" height="136" fill="none" stroke="#ef4444" stroke-width="2.5" opacity="0.92"/>
  <path d="M770 228 L770 204 L796 204" stroke="#ef4444" stroke-width="3.5" fill="none" stroke-linecap="round"/>
  <path d="M866 204 L890 204 L890 228" stroke="#ef4444" stroke-width="3.5" fill="none" stroke-linecap="round"/>
  <path d="M770 316 L770 340 L796 340" stroke="#ef4444" stroke-width="3.5" fill="none" stroke-linecap="round"/>
  <path d="M890 316 L890 340 L866 340" stroke="#ef4444" stroke-width="3.5" fill="none" stroke-linecap="round"/>
  <!-- Label -->
  <rect x="770" y="177" width="120" height="27" fill="#ef4444" rx="3"/>
  <text x="830" y="195" text-anchor="middle" font-family="'Courier New',monospace" font-size="13" fill="white" font-weight="bold">head  0.82</text>

  <!-- ─── FIGURE 3 : partial helmet (right, smaller) ─── -->
  <path d="M 946 230 Q 988 200 1030 230 L 1034 252 Q 988 268 942 252 Z"
        fill="rgba(16,185,129,0.18)" stroke="rgba(16,185,129,0.4)" stroke-width="1.2"/>
  <ellipse cx="988" cy="272" rx="36" ry="40" fill="rgba(200,170,130,0.1)"/>
  <rect x="940" y="196" width="96" height="120" fill="none" stroke="#10b981" stroke-width="2" opacity="0.75"/>
  <rect x="940" y="172" width="96" height="24" fill="#10b981" rx="3" opacity="0.85"/>
  <text x="988" y="188" text-anchor="middle" font-family="'Courier New',monospace" font-size="11" fill="white" font-weight="bold">helmet  0.91</text>

  <!-- Bottom HUD -->
  <rect x="0" y="631" width="1200" height="44" fill="rgba(0,0,0,0.72)"/>
  <circle cx="20" cy="653" r="4" fill="#10b981" opacity="0.9"/>
  <text x="32" y="658" font-family="'Courier New',monospace" font-size="11" fill="rgba(255,255,255,0.52)" letter-spacing="1">HELMET: 2</text>
  <circle cx="128" cy="653" r="4" fill="#ef4444" opacity="0.9"/>
  <text x="140" y="658" font-family="'Courier New',monospace" font-size="11" fill="rgba(255,255,255,0.52)" letter-spacing="1">HEAD: 1</text>
  <text x="600" y="658" text-anchor="middle" font-family="'Courier New',monospace" font-size="11" fill="rgba(255,255,255,0.28)" letter-spacing="2">PYTHON · YOLOV8 · OPENCV · STREAMLIT</text>
  <text x="1182" y="658" text-anchor="end" font-family="'Courier New',monospace" font-size="11" fill="rgba(255,255,255,0.28)">THD DEGGENDORF · 2026</text>
</svg>
